<svg width="26" height="33" viewBox="0 0 26 33" fill="none" xmlns="http://www.w3.org/2000/svg">
<rect y="4.33203" width="26" height="22.75" fill="#FF3C78"/>
<rect width="26" height="2.16667" fill="#FF3C78"/>
<rect x="11.917" y="8.66797" width="14.0833" height="4.33333" fill="white"/>
<rect x="11.917" y="15.168" width="14.0833" height="2.16667" fill="white"/>
<rect x="14.083" y="27.082" width="5.41667" height="2.16667" transform="rotate(90 14.083 27.082)" fill="#FF3C78"/>
<path d="M9.75033 13.5417C9.75033 14.2916 9.52795 15.0247 9.11131 15.6482C8.69468 16.2717 8.1025 16.7577 7.40967 17.0447C6.71683 17.3317 5.95445 17.4068 5.21894 17.2605C4.48343 17.1142 3.80782 16.7531 3.27755 16.2228C2.74727 15.6925 2.38615 15.0169 2.23985 14.2814C2.09355 13.5459 2.16863 12.7835 2.45562 12.0907C2.7426 11.3978 3.22859 10.8056 3.85212 10.389C4.47566 9.97238 5.20874 9.75 5.95866 9.75V12.224C5.69805 12.224 5.44329 12.3013 5.2266 12.4461C5.00992 12.5909 4.84103 12.7966 4.7413 13.0374C4.64157 13.2782 4.61547 13.5431 4.66631 13.7987C4.71716 14.0543 4.84265 14.2891 5.02693 14.4734C5.21121 14.6577 5.44599 14.7832 5.7016 14.834C5.9572 14.8849 6.22214 14.8588 6.46291 14.759C6.70368 14.6593 6.90947 14.4904 7.05426 14.2737C7.19904 14.057 7.27632 13.8023 7.27632 13.5417H9.75033Z" fill="white"/>
</svg>
