<svg width="107" height="38" viewBox="0 0 107 38" fill="none" xmlns="http://www.w3.org/2000/svg">
<path d="M54.5469 7.25V30H49.8594L40.7188 14.75V30H36.0312V7.25H40.7188L49.875 22.5156V7.25H54.5469ZM67.4688 26.1875V18.6562C67.4688 18.1146 67.3802 17.651 67.2031 17.2656C67.026 16.8698 66.75 16.5625 66.375 16.3438C66.0104 16.125 65.5365 16.0156 64.9531 16.0156C64.4531 16.0156 64.0208 16.1042 63.6562 16.2812C63.2917 16.4479 63.0104 16.6927 62.8125 17.0156C62.6146 17.3281 62.5156 17.6979 62.5156 18.125H58.0156C58.0156 17.4062 58.1823 16.724 58.5156 16.0781C58.849 15.4323 59.3333 14.8646 59.9688 14.375C60.6042 13.875 61.3594 13.4844 62.2344 13.2031C63.1198 12.9219 64.1094 12.7812 65.2031 12.7812C66.5156 12.7812 67.6823 13 68.7031 13.4375C69.724 13.875 70.526 14.5312 71.1094 15.4062C71.7031 16.2812 72 17.375 72 18.6875V25.9219C72 26.849 72.0573 27.6094 72.1719 28.2031C72.2865 28.7865 72.4531 29.2969 72.6719 29.7344V30H68.125C67.9062 29.5417 67.7396 28.9688 67.625 28.2812C67.5208 27.5833 67.4688 26.8854 67.4688 26.1875ZM68.0625 19.7031L68.0938 22.25H65.5781C64.9844 22.25 64.4688 22.3177 64.0312 22.4531C63.5938 22.5885 63.2344 22.7812 62.9531 23.0312C62.6719 23.2708 62.4635 23.5521 62.3281 23.875C62.2031 24.1979 62.1406 24.5521 62.1406 24.9375C62.1406 25.3229 62.2292 25.6719 62.4062 25.9844C62.5833 26.2865 62.8385 26.526 63.1719 26.7031C63.5052 26.8698 63.8958 26.9531 64.3438 26.9531C65.0208 26.9531 65.6094 26.8177 66.1094 26.5469C66.6094 26.276 66.9948 25.9427 67.2656 25.5469C67.5469 25.151 67.6927 24.776 67.7031 24.4219L68.8906 26.3281C68.724 26.7552 68.4948 27.1979 68.2031 27.6562C67.9219 28.1146 67.5625 28.5469 67.125 28.9531C66.6875 29.349 66.1615 29.6771 65.5469 29.9375C64.9323 30.1875 64.2031 30.3125 63.3594 30.3125C62.2865 30.3125 61.3125 30.099 60.4375 29.6719C59.5729 29.2344 58.8854 28.6354 58.375 27.875C57.875 27.1042 57.625 26.2292 57.625 25.25C57.625 24.3646 57.7917 23.5781 58.125 22.8906C58.4583 22.2031 58.9479 21.625 59.5938 21.1562C60.25 20.6771 61.0677 20.3177 62.0469 20.0781C63.026 19.8281 64.1615 19.7031 65.4531 19.7031H68.0625ZM84.6094 25.3281C84.6094 25.0052 84.5156 24.7135 84.3281 24.4531C84.1406 24.1927 83.7917 23.9531 83.2812 23.7344C82.7812 23.5052 82.0573 23.2969 81.1094 23.1094C80.2552 22.9219 79.4583 22.6875 78.7188 22.4062C77.9896 22.1146 77.3542 21.7656 76.8125 21.3594C76.2812 20.9531 75.8646 20.474 75.5625 19.9219C75.2604 19.3594 75.1094 18.7188 75.1094 18C75.1094 17.2917 75.2604 16.625 75.5625 16C75.875 15.375 76.3177 14.8229 76.8906 14.3438C77.474 13.8542 78.1823 13.474 79.0156 13.2031C79.8594 12.9219 80.8073 12.7812 81.8594 12.7812C83.3281 12.7812 84.5885 13.0156 85.6406 13.4844C86.7031 13.9531 87.5156 14.599 88.0781 15.4219C88.651 16.2344 88.9375 17.1615 88.9375 18.2031H84.4375C84.4375 17.7656 84.3438 17.375 84.1562 17.0312C83.9792 16.6771 83.6979 16.401 83.3125 16.2031C82.9375 15.9948 82.4479 15.8906 81.8438 15.8906C81.3438 15.8906 80.9115 15.9792 80.5469 16.1562C80.1823 16.3229 79.901 16.5521 79.7031 16.8438C79.5156 17.125 79.4219 17.4375 79.4219 17.7812C79.4219 18.0417 79.474 18.276 79.5781 18.4844C79.6927 18.6823 79.875 18.8646 80.125 19.0312C80.375 19.1979 80.6979 19.3542 81.0938 19.5C81.5 19.6354 82 19.7604 82.5938 19.875C83.8125 20.125 84.901 20.4531 85.8594 20.8594C86.8177 21.2552 87.5781 21.7969 88.1406 22.4844C88.7031 23.1615 88.9844 24.0521 88.9844 25.1562C88.9844 25.9062 88.8177 26.5938 88.4844 27.2188C88.151 27.8438 87.6719 28.3906 87.0469 28.8594C86.4219 29.3177 85.6719 29.6771 84.7969 29.9375C83.9323 30.1875 82.9583 30.3125 81.875 30.3125C80.3021 30.3125 78.9688 30.0312 77.875 29.4688C76.7917 28.9062 75.9688 28.1927 75.4062 27.3281C74.8542 26.4531 74.5781 25.5573 74.5781 24.6406H78.8438C78.8646 25.2552 79.0208 25.75 79.3125 26.125C79.6146 26.5 79.9948 26.7708 80.4531 26.9375C80.9219 27.1042 81.4271 27.1875 81.9688 27.1875C82.5521 27.1875 83.0365 27.1094 83.4219 26.9531C83.8073 26.7865 84.099 26.5677 84.2969 26.2969C84.5052 26.0156 84.6094 25.6927 84.6094 25.3281ZM101.031 26.1875V18.6562C101.031 18.1146 100.943 17.651 100.766 17.2656C100.589 16.8698 100.312 16.5625 99.9375 16.3438C99.5729 16.125 99.099 16.0156 98.5156 16.0156C98.0156 16.0156 97.5833 16.1042 97.2188 16.2812C96.8542 16.4479 96.5729 16.6927 96.375 17.0156C96.1771 17.3281 96.0781 17.6979 96.0781 18.125H91.5781C91.5781 17.4062 91.7448 16.724 92.0781 16.0781C92.4115 15.4323 92.8958 14.8646 93.5312 14.375C94.1667 13.875 94.9219 13.4844 95.7969 13.2031C96.6823 12.9219 97.6719 12.7812 98.7656 12.7812C100.078 12.7812 101.245 13 102.266 13.4375C103.286 13.875 104.089 14.5312 104.672 15.4062C105.266 16.2812 105.562 17.375 105.562 18.6875V25.9219C105.562 26.849 105.62 27.6094 105.734 28.2031C105.849 28.7865 106.016 29.2969 106.234 29.7344V30H101.688C101.469 29.5417 101.302 28.9688 101.188 28.2812C101.083 27.5833 101.031 26.8854 101.031 26.1875ZM101.625 19.7031L101.656 22.25H99.1406C98.5469 22.25 98.0312 22.3177 97.5938 22.4531C97.1562 22.5885 96.7969 22.7812 96.5156 23.0312C96.2344 23.2708 96.026 23.5521 95.8906 23.875C95.7656 24.1979 95.7031 24.5521 95.7031 24.9375C95.7031 25.3229 95.7917 25.6719 95.9688 25.9844C96.1458 26.2865 96.401 26.526 96.7344 26.7031C97.0677 26.8698 97.4583 26.9531 97.9062 26.9531C98.5833 26.9531 99.1719 26.8177 99.6719 26.5469C100.172 26.276 100.557 25.9427 100.828 25.5469C101.109 25.151 101.255 24.776 101.266 24.4219L102.453 26.3281C102.286 26.7552 102.057 27.1979 101.766 27.6562C101.484 28.1146 101.125 28.5469 100.688 28.9531C100.25 29.349 99.724 29.6771 99.1094 29.9375C98.4948 30.1875 97.7656 30.3125 96.9219 30.3125C95.849 30.3125 94.875 30.099 94 29.6719C93.1354 29.2344 92.4479 28.6354 91.9375 27.875C91.4375 27.1042 91.1875 26.2292 91.1875 25.25C91.1875 24.3646 91.3542 23.5781 91.6875 22.8906C92.0208 22.2031 92.5104 21.625 93.1562 21.1562C93.8125 20.6771 94.6302 20.3177 95.6094 20.0781C96.5885 19.8281 97.724 19.7031 99.0156 19.7031H101.625Z" fill="white"/>
<path d="M26 33L0 7H8.66667L19.3968 17.7302V7H26V33Z" fill="#FF3C78"/>
<path d="M1 19.1836L5.71014 23.9565L10.4203 28.7295H1V19.1836Z" fill="#FF3C78"/>
</svg>
