<svg width="31" height="31" viewBox="0 0 31 31" fill="none" xmlns="http://www.w3.org/2000/svg">
<g clip-path="url(#clip0_1332_3983)">
<path d="M24.5417 21.8296C26.1112 21.5109 27.5064 20.6203 28.4563 19.3308C29.4062 18.0413 29.8431 16.4449 29.6821 14.8514C29.5212 13.2579 28.7738 11.781 27.5853 10.7075C26.3967 9.63404 24.8516 9.04048 23.25 9.04209H21.6225C21.1946 7.3853 20.3619 5.86071 19.1992 4.6052C18.0365 3.3497 16.5803 2.40258 14.9611 1.84888C13.342 1.29519 11.6108 1.15225 9.92275 1.4329C8.23475 1.71354 6.64287 2.40899 5.29002 3.45681C3.93718 4.50462 2.86572 5.872 2.17185 7.43618C1.47798 9.00036 1.18341 10.7124 1.31459 12.4185C1.44578 14.1246 1.99861 15.7715 2.92345 17.2112C3.8483 18.6509 5.1162 19.8384 6.61333 20.6671" stroke="#FF3C78" stroke-width="2" stroke-linecap="round" stroke-linejoin="round"/>
<path d="M16.7917 14.207L11.625 21.957H19.375L14.2083 29.707" stroke="#FF3C78" stroke-width="2" stroke-linecap="round" stroke-linejoin="round"/>
</g>
<defs>
<clipPath id="clip0_1332_3983">
<rect width="31" height="31" fill="white"/>
</clipPath>
</defs>
</svg>
