<svg width="246" height="267" viewBox="0 0 246 267" fill="none" xmlns="http://www.w3.org/2000/svg">
<path d="M0 45C0 36.1634 7.16344 29 16 29H61.5H97.3709C97.4471 29 97.5138 29.0511 97.5336 29.1246C104.602 55.3196 141.768 55.284 148.966 29.1241C148.986 29.0509 149.053 29 149.129 29H184.5H230C238.837 29 246 36.1634 246 45V251C246 259.837 238.837 267 230 267H16C7.16344 267 0 259.837 0 251V45Z" fill="white"/>
<circle cx="123.5" cy="22.5" r="22.5" fill="#FF3C78"/>
<path d="M124 9C117.372 9 112 14.177 112 20.5714C112 25.0915 114.695 28.9969 118.614 30.9013L115.5 36L123.522 32.1187C123.681 32.1248 123.836 32.1429 124 32.1429C130.628 32.1429 136 26.9658 136 20.5714C136 14.177 130.628 9 124 9ZM130 21.8551H118V19.2817H130V21.8551Z" fill="white"/>
<path d="M64.84 101.376V106.272H74.392V115.872H79.288V106.272H88.84V101.376H79.288V91.824H74.392V101.376H64.84ZM105.12 102.624C110.016 102.624 112.32 105.216 112.32 108.768C112.32 112.656 109.776 115.152 105.936 115.152C102.192 115.152 99.6955 112.848 99.6955 108.816H93.6475C93.6475 116.4 98.9755 120.624 105.84 120.624C112.944 120.624 118.56 116.064 118.56 108.864C118.56 102.672 114.384 98.736 109.008 97.68L117.552 89.808V84.912H95.2795V90.336H109.872L100.848 98.64V102.624H105.12ZM122.032 110.064C122.032 116.448 127.264 120.576 135.376 120.576C143.536 120.576 148.768 116.4 148.768 110.064C148.768 105.84 146.368 102.432 142.672 101.136C145.792 99.84 147.52 97.2 147.52 93.792C147.52 88.08 142.672 84.288 135.472 84.288C128.224 84.288 123.28 88.128 123.28 93.696C123.28 97.104 124.96 99.744 128.032 101.136C124.384 102.528 122.032 105.888 122.032 110.064ZM128.848 94.224C128.848 91.344 131.392 89.52 135.376 89.52C139.312 89.52 141.808 91.344 141.808 94.272C141.808 97.2 139.312 99.024 135.376 99.024C131.392 99.024 128.848 97.152 128.848 94.224ZM128.032 109.632C128.032 106.224 130.864 104.112 135.376 104.112C139.888 104.112 142.72 106.224 142.72 109.632C142.72 113.04 139.888 115.152 135.424 115.152C130.864 115.152 128.032 113.04 128.032 109.632ZM152.83 102.528C152.83 113.376 158.35 120.624 167.662 120.624C176.974 120.624 182.542 113.376 182.542 102.528C182.542 91.632 176.638 84.24 167.662 84.24C158.686 84.24 152.83 91.632 152.83 102.528ZM158.878 102.528C158.878 94.224 162.142 89.664 167.662 89.664C173.23 89.664 176.494 94.224 176.494 102.528C176.494 110.64 173.23 115.2 167.662 115.2C162.142 115.2 158.878 110.64 158.878 102.528Z" fill="#1E1E1E"/>
<rect x="36" y="150" width="173" height="12" rx="6" fill="#E1E0DE"/>
<rect x="52" y="170.695" width="142" height="7.30435" rx="3.65217" fill="#E1E0DE"/>
<rect x="24" y="201" width="196" height="42" rx="21" fill="#59D7C9"/>
</svg>
